# xmcd CD database file
#
# Track frame offsets:
#	150
#	17808
#	36291
#	54942
#	74170
#	90382
#	108333
#	129136
#	147208
#	164287
#	181580
#	197460
#
# Disc length: 2785 seconds
#
# Revision: 0
# Processed by: cddbd v1.5.2PL0 Copyright (c) Steve Scherf et al.
# Submitted via: CDex 1.70beta2
#
DISCID=960adf0c
DTITLE=Woodward, Lucy - {Hooked!}
DYEAR=2010
DGENRE=Jazz
TTITLE0=He Got Away
TTITLE1=Sans Souci
TTITLE2=Purple Heart
TTITLE3=I Wan'na Be Like You (The Monkey Song)
TTITLE4=Another Woman
TTITLE5=Babies
TTITLE6=Slow Recovery
TTITLE7=Ragdoll
TTITLE8=This Empty Room
TTITLE9=Too Much to Live For
TTITLE10=Leave It to You
TTITLE11=Stardust
EXTD=YEAR: 2010
EXTT0=
EXTT1=
EXTT2=
EXTT3=
EXTT4=
EXTT5=
EXTT6=
EXTT7=
EXTT8=
EXTT9=
EXTT10=
EXTT11=
PLAYORDER=
